Coordinates
version=1
nRows=9
nColumns=24
inDegrees=yes

Units are S.I. units (second, meters, Newtons, ...)
If the header above contains a line with 'inDegrees', this indicates whether rotational values are in degrees (yes) or radians (no).

endheader
time	pelvis_tilt	pelvis_list	pelvis_rotation	pelvis_tx	pelvis_ty	pelvis_tz	hip_flexion_r	hip_adduction_r	hip_rotation_r	knee_angle_r	ankle_angle_r	subtalar_angle_r	mtp_angle_r	hip_flexion_l	hip_adduction_l	hip_rotation_l	knee_angle_l	ankle_angle_l	subtalar_angle_l	mtp_angle_l	lumbar_extension	lumbar_bending	lumbar_rotation
      3.33000000	     13.30423148	     -0.18592197	     -1.80238081	      0.45601056	      0.97638233	     -0.02673607	    -23.23161555	     -2.41973113	     -2.61489622	     11.86988942	     -4.44581604	      0.00000000	      0.00000000	    -21.64766694	     -0.92528721	      0.64698345	      6.79855800	      0.68921822	      0.00000000	      0.00000000	    -22.18275779	     -1.69146586	     -3.61636449
      3.34000000	     13.37517591	     -0.15236622	     -1.66329920	      0.45642854	      0.97646086	     -0.02655809	    -23.36539672	     -2.38696443	     -2.68000550	     11.88213462	     -4.44067080	      0.00000000	      0.00000000	    -21.67206756	     -0.94787571	      0.71368706	      6.69095038	      0.68295836	      0.00000000	      0.00000000	    -22.17063896	     -1.71955698	     -3.61607475
      3.35000000	     13.57669294	     -0.00493192	     -1.34398902	      0.45701291	      0.97661763	     -0.02663336	    -23.74123656	     -2.36985556	     -3.15317868	     12.02188172	     -4.50150515	      0.00000000	      0.00000000	    -21.79245737	     -0.93725509	      1.17467799	      6.49914809	      0.82230480	      0.00000000	      0.00000000	    -22.29318604	     -1.84057796	     -3.63730873
      3.36000000	     13.63354977	      0.05950454	     -1.16320451	      0.45754312	      0.97665116	     -0.02654363	    -23.91951527	     -2.34861278	     -3.27549278	     12.12333093	     -4.43951664	      0.00000000	      0.00000000	    -21.77862710	     -0.94177221	      1.27195416	      6.34582064	      0.82764486	      0.00000000	      0.00000000	    -22.25378829	     -1.85993990	     -3.65460558
      3.37000000	     13.70843432	      0.20144375	     -0.89220318	      0.45807703	      0.97669086	     -0.02657724	    -24.14558749	     -2.35544069	     -3.58422172	     12.24933689	     -4.43446943	      0.00000000	      0.00000000	    -21.75554692	     -0.91044942	      1.58676122	      6.14966401	      0.93009842	      0.00000000	      0.00000000	    -22.21043215	     -1.95269158	     -3.65990595
      3.38000000	     13.73022225	      0.33900195	     -0.64142567	      0.45870098	      0.97663712	     -0.02665215	    -24.32618504	     -2.36829073	     -3.89150681	     12.39581775	     -4.44339651	      0.00000000	      0.00000000	    -21.72869834	     -0.87821791	      1.89715956	      6.03684671	      1.00838063	      0.00000000	      0.00000000	    -22.16785404	     -2.06081631	     -3.66364035
      3.39000000	     13.73010778	      0.44251331	     -0.46018870	      0.45932065	      0.97656411	     -0.02671206	    -24.45462927	     -2.38458595	     -4.09791913	     12.50648193	     -4.44491857	      0.00000000	      0.00000000	    -21.71400676	     -0.84747871	      2.11095961	      5.97711883	      1.05117600	      0.00000000	      0.00000000	    -22.08133751	     -2.13119360	     -3.66050150
      3.40000000	     13.70629215	      0.45198803	     -0.45216921	      0.45986627	      0.97650713	     -0.02655738	    -24.46785636	     -2.38243059	     -4.09966592	     12.50206529	     -4.44545216	      0.00000000	      0.00000000	    -21.72063266	     -0.84881862	      2.11251579	      5.97403638	      1.05246204	      0.00000000	      0.00000000	    -22.08091864	     -2.13210966	     -3.65944583
      3.41000000	     13.64022389	      0.57191164	     -0.24419204	      0.46069123	      0.97622584	     -0.02665573	    -24.60847746	     -2.40114523	     -4.31209253	     12.73772648	     -4.39178944	      0.00000000	      0.00000000	    -21.70096643	     -0.81418320	      2.32344139	      6.02367951	      1.11285458	      0.00000000	      0.00000000	    -21.84924573	     -2.19859554	     -3.59087110
